<svg xmlns="http://www.w3.org/2000/svg" xmlns:xlink="http://www.w3.org/1999/xlink" viewBox="0 0 145 145"><defs><style>.cls-1{fill:#333;}.cls-2{fill:url(#New_Gradient_Swatch);}.cls-3{fill:#666;}.cls-4{fill:#ea0f43;}.cls-5{fill:url(#linear-gradient);}.cls-6{fill:url(#linear-gradient-2);}</style><linearGradient id="New_Gradient_Swatch" x1="5.68" y1="113.71" x2="144.63" y2="113.71" gradientUnits="userSpaceOnUse"><stop offset="0.01" stop-color="#77d3fe"/><stop offset="0.33" stop-color="#45dff3"/><stop offset="0.61" stop-color="#1fe8ec"/><stop offset="0.84" stop-color="#08eee7"/><stop offset="0.99" stop-color="#00f0e5"/></linearGradient><linearGradient id="linear-gradient" x1="21.24" y1="83.87" x2="129.05" y2="83.87" gradientUnits="userSpaceOnUse"><stop offset="0.01" stop-color="#ea0f43"/><stop offset="0.57" stop-color="#ea0f30"/><stop offset="0.99" stop-color="#ea0f28"/></linearGradient><linearGradient id="linear-gradient-2" x1="56.56" y1="55.89" x2="100.19" y2="55.89" gradientUnits="userSpaceOnUse"><stop offset="0.01" stop-color="#fffdc7"/><stop offset="0.15" stop-color="#fffdbf"/><stop offset="0.66" stop-color="#ffffa8"/><stop offset="0.98" stop-color="#ffffa0"/></linearGradient></defs><title>logo_white</title><g id="Layer_2" data-name="Layer 2"><g id="Layer_1-2" data-name="Layer 1"><circle class="cls-1" cx="72.5" cy="72.5" r="72.5"/><path class="cls-2" d="M72.44,145a72.93,72.93,0,0,0,72.19-62.58c-1.87,3.46-8.46,10.1-31.67,14-32.41,5.4-16.21-16.21-59.42-10.8-26.43,3.3-40.72,10.64-47.85,15.85A72.93,72.93,0,0,0,72.44,145Z"/><ellipse class="cls-3" cx="69.98" cy="37.51" rx="5.38"/><rect class="cls-4" x="76.89" y="31.56" width="2.71" height="52.28" rx="0.25" ry="0.25"/><path class="cls-5" d="M48.65,66.48H23.77c-1.4,0-2.54,4.61-2.54,6v.14a2.54,2.54,0,0,0,2.54,2.54h.14a2.54,2.54,0,0,1,2.54,2.54V92.55a2.53,2.53,0,0,0,1.67,2.38C35.8,97.69,68.58,108,96,94.3c31.3-15.65,33-27.82,33-27.82h-1.74l-6.19,6.19a10.8,10.8,0,0,1-6,3c-11.53,1.75-48.13,7-60.7,5.06a2.55,2.55,0,0,1-2.15-2.1l-1.1-6.61C50.95,70.85,49.89,66.48,48.65,66.48Z"/><path class="cls-6" d="M57.69,42.2c3.49,4.68,8.13,14.4-.72,26.37a2.05,2.05,0,0,0,1.15,3.23c8.09,1.9,29.5,6.11,35.54-.78,14-16.06,1.53-30.34-1.6-33.48A2,2,0,0,0,90.49,37l-31.29,2A2,2,0,0,0,57.69,42.2Z"/></g></g></svg>