<svg id="Layer_1" data-name="Layer 1" xmlns="http://www.w3.org/2000/svg" xmlns:xlink="http://www.w3.org/1999/xlink" viewBox="0 0 282.61 230.3"><defs><style>.cls-1{fill:#ea0f43;}.cls-2{fill:url(#linear-gradient);}.cls-3{fill:url(#linear-gradient-2);}.cls-4{fill:url(#water_displore);}</style><linearGradient id="linear-gradient" x1="57.78" y1="228.53" x2="337.7" y2="228.53" gradientTransform="translate(-70.71 158.83) rotate(-37.63)" gradientUnits="userSpaceOnUse"><stop offset="0.01" stop-color="#ea0f43"/><stop offset="0.57" stop-color="#ea0f30"/><stop offset="0.99" stop-color="#ea0f28"/></linearGradient><linearGradient id="linear-gradient-2" x1="149.48" y1="155.89" x2="262.77" y2="155.89" gradientTransform="translate(-70.71 158.83) rotate(-37.63)" gradientUnits="userSpaceOnUse"><stop offset="0.01" stop-color="#fffdc7"/><stop offset="0.15" stop-color="#fffdbf"/><stop offset="0.66" stop-color="#ffffa8"/><stop offset="0.98" stop-color="#ffffa0"/></linearGradient><linearGradient id="water_displore" x1="60.26" y1="263.65" x2="342.87" y2="263.65" gradientUnits="userSpaceOnUse"><stop offset="0.01" stop-color="#77d3fe"/><stop offset="0.33" stop-color="#45dff3"/><stop offset="0.61" stop-color="#1fe8ec"/><stop offset="0.84" stop-color="#08eee7"/><stop offset="0.99" stop-color="#00f0e5"/></linearGradient></defs><title>404</title><rect class="cls-1" x="186.78" y="92.51" width="7.03" height="135.73" rx="0.25" ry="0.25" transform="translate(-118.59 52.54) rotate(-37.63)"/><path class="cls-2" d="M143.38,225.34,92.22,264.77c-2.88,2.22,2.1,13.51,4.32,16.39l.23.3a6.58,6.58,0,0,0,9.23,1.19l.3-.23a6.58,6.58,0,0,1,9.23,1.19l23.52,30.51a6.56,6.56,0,0,0,7.21,2.26c20.17-6.5,103.94-37.22,138.61-108.91,39.56-81.8,23.84-109.59,23.84-109.59l-3.58,2.76-2.92,22.55A28,28,0,0,1,294.67,139c-20.92,21.88-87.86,90.72-116.79,106.63a6.63,6.63,0,0,1-7.74-.91l-12.75-11.85C155,230.69,145.93,223.37,143.38,225.34Z" transform="translate(-60.26 -97)"/><path class="cls-3" d="M123.49,161.07c14.59,4.09,39.53,16.73,40.32,55.38a5.33,5.33,0,0,0,7.49,4.82c19.65-8.92,70.36-34.19,71.84-57.94,3.44-55.28-44.94-64.82-56.37-66.3a5.25,5.25,0,0,0-4.15,1.28l-61.23,53.61A5.32,5.32,0,0,0,123.49,161.07Z" transform="translate(-60.26 -97)"/><path class="cls-4" d="M196.05,327.29A148.35,148.35,0,0,0,342.87,200c-3.8,7-17.2,20.53-64.41,28.4-65.93,11-33-33-120.87-22-53.76,6.72-82.83,21.65-97.33,32.24A148.34,148.34,0,0,0,196.05,327.29Z" transform="translate(-60.26 -97)"/></svg>