<svg id="Layer_1" data-name="Layer 1" xmlns="http://www.w3.org/2000/svg" xmlns:xlink="http://www.w3.org/1999/xlink" viewBox="0 0 306.76 232.58"><defs><style>.cls-1{fill:#ea0f43;}.cls-2{fill:url(#water_displore);}.cls-3{fill:url(#boat_swatch);}.cls-4{fill:url(#linear-gradient);}.cls-5{fill:url(#linear-gradient-2);}.cls-6{fill:url(#linear-gradient-3);}.cls-7{fill:url(#linear-gradient-4);}.cls-8{fill:url(#linear-gradient-5);}</style><linearGradient id="water_displore" x1="145.89" y1="280.06" x2="265.93" y2="280.06" gradientUnits="userSpaceOnUse"><stop offset="0.01" stop-color="#77d3fe"/><stop offset="0.33" stop-color="#45dff3"/><stop offset="0.61" stop-color="#1fe8ec"/><stop offset="0.84" stop-color="#08eee7"/><stop offset="0.99" stop-color="#00f0e5"/></linearGradient><linearGradient id="boat_swatch" x1="13.91" y1="224.05" x2="197.32" y2="224.05" gradientTransform="translate(136.54 -29.33) rotate(27.33)" gradientUnits="userSpaceOnUse"><stop offset="0.01" stop-color="#ea0f43"/><stop offset="0.57" stop-color="#ea0f30"/><stop offset="0.99" stop-color="#ea0f28"/></linearGradient><linearGradient id="linear-gradient" x1="325.12" y1="295.55" x2="325.12" y2="295.55" gradientTransform="matrix(1, 0, 0, 1, 0, 0)" xlink:href="#boat_swatch"/><linearGradient id="linear-gradient-2" x1="145.73" y1="128.34" x2="268.18" y2="128.34" gradientTransform="matrix(0.78, -0.62, 0.62, 0.78, -58.97, 163.69)" gradientUnits="userSpaceOnUse"><stop offset="0.01" stop-color="#fffdc7"/><stop offset="0.15" stop-color="#fffdbf"/><stop offset="0.66" stop-color="#ffffa8"/><stop offset="0.98" stop-color="#ffffa0"/></linearGradient><linearGradient id="linear-gradient-3" x1="223.18" y1="230.07" x2="401.19" y2="230.07" gradientTransform="translate(-88.92 144.46) rotate(-26.49)" xlink:href="#boat_swatch"/><linearGradient id="linear-gradient-4" x1="216.87" y1="299.01" x2="216.87" y2="299.01" gradientTransform="matrix(1, 0, 0, 1, 0, 0)" xlink:href="#boat_swatch"/><linearGradient id="linear-gradient-5" x1="242.97" y1="332.9" x2="242.97" y2="332.9" gradientTransform="matrix(1, 0, 0, 1, 0, 0)" xlink:href="#boat_swatch"/></defs><title>500</title><rect class="cls-1" x="181.92" y="65.83" width="7.59" height="146.71" rx="0.25" ry="0.25" transform="translate(-93.14 75.4) rotate(-38.57)"/><path class="cls-2" d="M265.65,273.9c-8.39,48.77-36.19,22.24-104.37,22.24S274,225.12,265.65,273.9Z" transform="translate(-46.88 -70.76)"/><path class="cls-3" d="M193,280.06c-73.13-1-131.25-58.74-144.5-73a6,6,0,0,1-.92-6.87l16.25-31.43a6,6,0,0,0-2.6-8.15l-.31-.16a6,6,0,0,1-2.6-8.15l.16-.31c1.53-3,9-11.5,12-10l52.7,27.24c2.63,1.36.08,11.78-.83,14.59l-4.91,15.21a6.09,6.09,0,0,0,2.25,6.79l64.64,25.73-4.49,11.23,13.59,11.92L180.68,260l20.65,15Z" transform="translate(-46.88 -70.76)"/><path class="cls-4" d="M325.12,295.55" transform="translate(-46.88 -70.76)"/><path class="cls-5" d="M113.52,141.13c15.84,4.16,43,17.37,44.56,59.13a5.76,5.76,0,0,0,8.18,5.08c21.08-10,75.43-38.21,76.6-63.9,2.73-59.81-49.72-69.25-62.1-70.64a5.68,5.68,0,0,0-4.46,1.46l-65.22,59A5.75,5.75,0,0,0,113.52,141.13Z" transform="translate(-46.88 -70.76)"/><path class="cls-6" d="M276.75,260s25.11-20.17,35.3-33.72C362.21,159.55,353,131.73,353,131.73l-3.71,1.85-6.63,19.8A25.76,25.76,0,0,1,333,166.29c-6.16,4.33-35.9,23.45-64.92,41.38l-7.22,4.45s-46,27.61-52,29.53l11.29,19.63L240.68,255l-1.51,12,8.66,5.39,19.53,1.22Z" transform="translate(-46.88 -70.76)"/><path class="cls-7" d="M216.87,299" transform="translate(-46.88 -70.76)"/><path class="cls-8" d="M243,332.9" transform="translate(-46.88 -70.76)"/></svg>