<svg xmlns="http://www.w3.org/2000/svg" xmlns:xlink="http://www.w3.org/1999/xlink" viewBox="0 0 148 148"><defs><style>.cls-1{fill:none;stroke-miterlimit:10;stroke-width:3px;stroke:url(#New_Gradient_Swatch);}.cls-2{fill:url(#New_Gradient_Swatch-2);}.cls-3{fill:#ea0f43;}.cls-4{fill:url(#linear-gradient);}.cls-5{fill:url(#linear-gradient-2);}</style><linearGradient id="New_Gradient_Swatch" y1="74" x2="148" y2="74" gradientUnits="userSpaceOnUse"><stop offset="0.01" stop-color="#77d3fe"/><stop offset="0.33" stop-color="#45dff3"/><stop offset="0.61" stop-color="#1fe8ec"/><stop offset="0.84" stop-color="#08eee7"/><stop offset="0.99" stop-color="#00f0e5"/></linearGradient><linearGradient id="New_Gradient_Swatch-2" x1="7.18" y1="115.21" x2="146.13" y2="115.21" xlink:href="#New_Gradient_Swatch"/><linearGradient id="linear-gradient" x1="22.74" y1="85.37" x2="130.55" y2="85.37" gradientUnits="userSpaceOnUse"><stop offset="0.01" stop-color="#ea0f43"/><stop offset="0.57" stop-color="#ea0f30"/><stop offset="0.99" stop-color="#ea0f28"/></linearGradient><linearGradient id="linear-gradient-2" x1="58.06" y1="57.39" x2="101.69" y2="57.39" gradientUnits="userSpaceOnUse"><stop offset="0.01" stop-color="#fffdc7"/><stop offset="0.15" stop-color="#fffdbf"/><stop offset="0.66" stop-color="#ffffa8"/><stop offset="0.99" stop-color="#ffffa0"/></linearGradient></defs><title>Asset 2</title><g id="Layer_2" data-name="Layer 2"><g id="Layer_1-2" data-name="Layer 1"><circle class="cls-1" cx="74" cy="74" r="72.5"/><path class="cls-2" d="M73.94,146.5a72.93,72.93,0,0,0,72.19-62.58c-1.87,3.46-8.46,10.1-31.67,14C82,103.28,98.25,81.67,55,87.08c-26.43,3.3-40.72,10.64-47.85,15.85A72.93,72.93,0,0,0,73.94,146.5Z"/><rect class="cls-3" x="82.39" y="44.06" width="2.71" height="52.28" rx="0.25" ry="0.25"/><path class="cls-4" d="M50.15,68H25.27c-1.4,0-2.54,4.61-2.54,6v.14a2.54,2.54,0,0,0,2.54,2.54h.14A2.54,2.54,0,0,1,28,79.21V94a2.53,2.53,0,0,0,1.67,2.38c7.68,2.76,40.46,13.09,67.89-.63,31.3-15.65,33-27.82,33-27.82h-1.74l-6.19,6.19a10.8,10.8,0,0,1-6,3c-11.53,1.75-48.13,7-60.7,5.06a2.55,2.55,0,0,1-2.15-2.1l-1.1-6.61C52.45,72.35,51.39,68,50.15,68Z"/><path class="cls-5" d="M59.19,43.7c3.49,4.68,8.13,14.4-.72,26.37a2.05,2.05,0,0,0,1.15,3.23c8.09,1.9,29.5,6.11,35.54-.78,14-16.06,1.53-30.34-1.6-33.48A2,2,0,0,0,92,38.46l-31.29,2A2,2,0,0,0,59.19,43.7Z"/></g></g></svg>