<svg id="Layer_1" data-name="Layer 1" xmlns="http://www.w3.org/2000/svg" xmlns:xlink="http://www.w3.org/1999/xlink" viewBox="0 0 297.21 192.15"><defs><style>.cls-1{fill:#666;}.cls-2{fill:#ea0f43;}.cls-3{fill:url(#linear-gradient);}.cls-4{fill:url(#linear-gradient-2);}</style><linearGradient id="linear-gradient" x1="58.68" y1="231.34" x2="355.9" y2="231.34" gradientUnits="userSpaceOnUse"><stop offset="0.01" stop-color="#ea0f43"/><stop offset="0.57" stop-color="#ea0f30"/><stop offset="0.99" stop-color="#ea0f28"/></linearGradient><linearGradient id="linear-gradient-2" x1="156.05" y1="154.22" x2="276.34" y2="154.22" gradientUnits="userSpaceOnUse"><stop offset="0.01" stop-color="#fffdc7"/><stop offset="0.15" stop-color="#fffdbf"/><stop offset="0.66" stop-color="#ffffa8"/><stop offset="0.98" stop-color="#ffffa0"/></linearGradient></defs><title>Displore Logo Boat</title><ellipse class="cls-1" cx="134.36" cy="16.42" rx="14.83"/><rect class="cls-2" x="153.41" width="7.46" height="144.11" rx="0.25" ry="0.25"/><path class="cls-3" d="M134.26,183.41H65.67c-3.86,0-7,12.72-7,16.58v.4a7,7,0,0,0,7,7h.4a7,7,0,0,1,7,7v40.9a7,7,0,0,0,4.6,6.57c21.18,7.61,111.53,36.08,187.15-1.73,86.29-43.14,91.08-76.7,91.08-76.7H351.1L334,200.48a29.77,29.77,0,0,1-16.6,8.4c-31.78,4.84-132.69,19.34-167.33,14a7,7,0,0,1-5.91-5.78l-3-18.23C140.59,195.46,137.67,183.41,134.26,183.41Z" transform="translate(-58.68 -87.13)"/><path class="cls-4" d="M159.19,116.47c9.61,12.89,22.4,39.69-2,72.71a5.66,5.66,0,0,0,3.17,8.91c22.31,5.23,81.33,16.86,98-2.15,38.73-44.26,4.23-83.64-4.42-92.29a5.58,5.58,0,0,0-4.32-1.61l-86.24,5.39A5.65,5.65,0,0,0,159.19,116.47Z" transform="translate(-58.68 -87.13)"/></svg>