<svg xmlns="http://www.w3.org/2000/svg" xmlns:xlink="http://www.w3.org/1999/xlink" viewBox="0 0 145.2 145.59"><defs><style>.cls-1{fill:#333;}.cls-2{fill:url(#New_Gradient_Swatch);}.cls-3{fill:#666;}.cls-4{fill:#ea0f43;}.cls-5{fill:url(#linear-gradient);}.cls-6{fill:url(#linear-gradient-2);}</style><linearGradient id="New_Gradient_Swatch" x1="5.2" y1="114.18" x2="145.2" y2="114.18" gradientUnits="userSpaceOnUse"><stop offset="0.01" stop-color="#77d3fe"/><stop offset="0.33" stop-color="#45dff3"/><stop offset="0.61" stop-color="#1fe8ec"/><stop offset="0.84" stop-color="#08eee7"/><stop offset="0.99" stop-color="#00f0e5"/></linearGradient><linearGradient id="linear-gradient" x1="22.24" y1="83.87" x2="130.05" y2="83.87" gradientUnits="userSpaceOnUse"><stop offset="0.01" stop-color="#ea0f43"/><stop offset="0.57" stop-color="#ea0f30"/><stop offset="0.99" stop-color="#ea0f28"/></linearGradient><linearGradient id="linear-gradient-2" x1="57.56" y1="55.89" x2="101.19" y2="55.89" gradientUnits="userSpaceOnUse"><stop offset="0.01" stop-color="#fffdc7"/><stop offset="0.15" stop-color="#fffdbf"/><stop offset="0.66" stop-color="#ffffa8"/><stop offset="0.98" stop-color="#ffffa0"/></linearGradient></defs><title>Asset 7</title><g id="Layer_2" data-name="Layer 2"><g id="Layer_1-2" data-name="Layer 1"><circle class="cls-1" cx="72.5" cy="72.5" r="72.5"/><path class="cls-2" d="M72.47,145.59A73.4,73.4,0,0,0,145.2,82.77c-1.88,3.47-8.52,10.13-31.91,14C80.63,102.21,97,80.52,53.42,85.94c-26.63,3.32-41,10.69-48.22,15.91A73.49,73.49,0,0,0,72.47,145.59Z"/><ellipse class="cls-3" cx="70.98" cy="37.51" rx="5.38"/><rect class="cls-4" x="77.89" y="31.56" width="2.71" height="52.28" rx="0.25" ry="0.25"/><path class="cls-5" d="M49.65,66.48H24.77c-1.4,0-2.54,4.61-2.54,6v.14a2.54,2.54,0,0,0,2.54,2.54h.14a2.54,2.54,0,0,1,2.54,2.54V92.55a2.53,2.53,0,0,0,1.67,2.38C36.8,97.69,69.58,108,97,94.3c31.3-15.65,33-27.82,33-27.82h-1.74l-6.19,6.19a10.8,10.8,0,0,1-6,3c-11.53,1.75-48.13,7-60.7,5.06a2.55,2.55,0,0,1-2.15-2.1l-1.1-6.61C51.95,70.85,50.89,66.48,49.65,66.48Z"/><path class="cls-6" d="M58.69,42.2c3.49,4.68,8.13,14.4-.72,26.37a2.05,2.05,0,0,0,1.15,3.23c8.09,1.9,29.5,6.11,35.54-.78,14-16.06,1.53-30.34-1.6-33.48A2,2,0,0,0,91.49,37l-31.29,2A2,2,0,0,0,58.69,42.2Z"/></g></g></svg>